<svg width="419" height="169" viewBox="0 0 419 169" fill="none" xmlns="http://www.w3.org/2000/svg">
<path d="M57.2238 11L57.2224 128.996M417.999 129.01L56.9659 129" stroke="#EBEBEB"/>
<path d="M34.9831 128.692C34.9831 129.444 34.9011 130.096 34.7371 130.648C34.5771 131.2 34.3551 131.658 34.0711 132.022C33.7911 132.382 33.4591 132.65 33.0751 132.826C32.6951 133.002 32.2851 133.09 31.8451 133.09C31.4051 133.09 30.9931 133.002 30.6091 132.826C30.2291 132.65 29.8991 132.382 29.6191 132.022C29.3391 131.658 29.1191 131.2 28.9591 130.648C28.7991 130.096 28.7191 129.444 28.7191 128.692C28.7191 127.94 28.7991 127.288 28.9591 126.736C29.1191 126.18 29.3391 125.722 29.6191 125.362C29.8991 124.998 30.2291 124.728 30.6091 124.552C30.9931 124.376 31.4051 124.288 31.8451 124.288C32.2851 124.288 32.6951 124.376 33.0751 124.552C33.4591 124.728 33.7911 124.998 34.0711 125.362C34.3551 125.722 34.5771 126.18 34.7371 126.736C34.9011 127.288 34.9831 127.94 34.9831 128.692ZM33.7711 128.692C33.7711 128.044 33.7171 127.502 33.6091 127.066C33.5051 126.63 33.3631 126.28 33.1831 126.016C33.0071 125.748 32.8031 125.558 32.5711 125.446C32.3391 125.334 32.0971 125.278 31.8451 125.278C31.5931 125.278 31.3511 125.334 31.1191 125.446C30.8871 125.558 30.6811 125.748 30.5011 126.016C30.3251 126.28 30.1851 126.63 30.0811 127.066C29.9771 127.502 29.9251 128.044 29.9251 128.692C29.9251 129.34 29.9771 129.882 30.0811 130.318C30.1851 130.754 30.3251 131.104 30.5011 131.368C30.6811 131.632 30.8871 131.82 31.1191 131.932C31.3511 132.044 31.5931 132.1 31.8451 132.1C32.0971 132.1 32.3391 132.044 32.5711 131.932C32.8031 131.82 33.0071 131.632 33.1831 131.368C33.3631 131.104 33.5051 130.754 33.6091 130.318C33.7171 129.882 33.7711 129.34 33.7711 128.692ZM39.7 126.466C39.7 126.802 39.646 127.102 39.538 127.366C39.434 127.63 39.294 127.854 39.118 128.038C38.942 128.218 38.736 128.358 38.5 128.458C38.268 128.554 38.024 128.602 37.768 128.602C37.492 128.602 37.236 128.554 37 128.458C36.768 128.358 36.566 128.218 36.394 128.038C36.222 127.854 36.086 127.63 35.986 127.366C35.89 127.102 35.842 126.802 35.842 126.466C35.842 126.122 35.89 125.816 35.986 125.548C36.086 125.28 36.222 125.054 36.394 124.87C36.566 124.682 36.768 124.54 37 124.444C37.236 124.344 37.492 124.294 37.768 124.294C38.044 124.294 38.298 124.344 38.53 124.444C38.766 124.54 38.97 124.682 39.142 124.87C39.318 125.054 39.454 125.28 39.55 125.548C39.65 125.816 39.7 126.122 39.7 126.466ZM38.788 126.466C38.788 126.21 38.76 125.994 38.704 125.818C38.652 125.638 38.58 125.494 38.488 125.386C38.396 125.274 38.288 125.194 38.164 125.146C38.04 125.094 37.908 125.068 37.768 125.068C37.628 125.068 37.496 125.094 37.372 125.146C37.248 125.194 37.14 125.274 37.048 125.386C36.96 125.494 36.89 125.638 36.838 125.818C36.786 125.994 36.76 126.21 36.76 126.466C36.76 126.714 36.786 126.926 36.838 127.102C36.89 127.274 36.96 127.414 37.048 127.522C37.14 127.63 37.248 127.708 37.372 127.756C37.496 127.804 37.628 127.828 37.768 127.828C37.908 127.828 38.04 127.804 38.164 127.756C38.288 127.708 38.396 127.63 38.488 127.522C38.58 127.414 38.652 127.274 38.704 127.102C38.76 126.926 38.788 126.714 38.788 126.466ZM42.7 124.576C42.744 124.524 42.794 124.48 42.85 124.444C42.91 124.404 42.992 124.384 43.096 124.384H43.942L37.618 132.814C37.574 132.87 37.522 132.916 37.462 132.952C37.402 132.984 37.33 133 37.246 133H36.376L42.7 124.576ZM44.494 130.966C44.494 131.302 44.44 131.602 44.332 131.866C44.228 132.13 44.088 132.354 43.912 132.538C43.736 132.718 43.53 132.858 43.294 132.958C43.062 133.054 42.818 133.102 42.562 133.102C42.286 133.102 42.03 133.054 41.794 132.958C41.562 132.858 41.36 132.718 41.188 132.538C41.016 132.354 40.88 132.13 40.78 131.866C40.684 131.602 40.636 131.302 40.636 130.966C40.636 130.622 40.684 130.316 40.78 130.048C40.88 129.78 41.016 129.554 41.188 129.37C41.36 129.182 41.562 129.04 41.794 128.944C42.03 128.848 42.286 128.8 42.562 128.8C42.838 128.8 43.092 128.848 43.324 128.944C43.56 129.04 43.764 129.182 43.936 129.37C44.112 129.554 44.248 129.78 44.344 130.048C44.444 130.316 44.494 130.622 44.494 130.966ZM43.582 130.966C43.582 130.71 43.554 130.494 43.498 130.318C43.446 130.142 43.374 130 43.282 129.892C43.19 129.78 43.082 129.7 42.958 129.652C42.834 129.6 42.702 129.574 42.562 129.574C42.418 129.574 42.284 129.6 42.16 129.652C42.04 129.7 41.934 129.78 41.842 129.892C41.754 130 41.684 130.142 41.632 130.318C41.58 130.494 41.554 130.71 41.554 130.966C41.554 131.218 41.58 131.43 41.632 131.602C41.684 131.774 41.754 131.914 41.842 132.022C41.934 132.13 42.04 132.208 42.16 132.256C42.284 132.304 42.418 132.328 42.562 132.328C42.702 132.328 42.834 132.304 42.958 132.256C43.082 132.208 43.19 132.13 43.282 132.022C43.374 131.914 43.446 131.774 43.498 131.602C43.554 131.43 43.582 131.218 43.582 130.966Z" fill="#979797"/>
<path d="M27.3262 72.89C27.4542 72.89 27.5542 72.928 27.6262 73.004C27.6982 73.076 27.7342 73.172 27.7342 73.292V74H21.9502V73.598C21.9502 73.518 21.9662 73.434 21.9982 73.346C22.0302 73.254 22.0842 73.172 22.1602 73.1L24.8842 70.37C25.1122 70.142 25.3182 69.922 25.5022 69.71C25.6862 69.498 25.8422 69.288 25.9702 69.08C26.0982 68.868 26.1962 68.652 26.2642 68.432C26.3362 68.212 26.3722 67.98 26.3722 67.736C26.3722 67.496 26.3342 67.286 26.2582 67.106C26.1822 66.922 26.0782 66.77 25.9462 66.65C25.8142 66.53 25.6582 66.44 25.4782 66.38C25.2982 66.32 25.1042 66.29 24.8962 66.29C24.6882 66.29 24.4962 66.32 24.3202 66.38C24.1482 66.44 23.9942 66.524 23.8582 66.632C23.7222 66.74 23.6082 66.868 23.5162 67.016C23.4242 67.164 23.3582 67.324 23.3182 67.496C23.2622 67.648 23.1902 67.75 23.1022 67.802C23.0182 67.854 22.8942 67.866 22.7302 67.838L22.1182 67.73C22.1742 67.33 22.2842 66.978 22.4482 66.674C22.6122 66.37 22.8182 66.116 23.0662 65.912C23.3142 65.704 23.5982 65.548 23.9182 65.444C24.2422 65.34 24.5902 65.288 24.9622 65.288C25.3382 65.288 25.6842 65.344 26.0002 65.456C26.3202 65.564 26.5962 65.722 26.8282 65.93C27.0602 66.138 27.2422 66.392 27.3742 66.692C27.5062 66.988 27.5722 67.324 27.5722 67.7C27.5722 68.02 27.5242 68.318 27.4282 68.594C27.3362 68.866 27.2082 69.126 27.0442 69.374C26.8842 69.622 26.6962 69.864 26.4802 70.1C26.2682 70.332 26.0422 70.568 25.8022 70.808L23.6182 73.04C23.7862 72.996 23.9542 72.96 24.1222 72.932C24.2942 72.904 24.4562 72.89 24.6082 72.89H27.3262ZM34.9831 69.692C34.9831 70.444 34.9011 71.096 34.7371 71.648C34.5771 72.2 34.3551 72.658 34.0711 73.022C33.7911 73.382 33.4591 73.65 33.0751 73.826C32.6951 74.002 32.2851 74.09 31.8451 74.09C31.4051 74.09 30.9931 74.002 30.6091 73.826C30.2291 73.65 29.8991 73.382 29.6191 73.022C29.3391 72.658 29.1191 72.2 28.9591 71.648C28.7991 71.096 28.7191 70.444 28.7191 69.692C28.7191 68.94 28.7991 68.288 28.9591 67.736C29.1191 67.18 29.3391 66.722 29.6191 66.362C29.8991 65.998 30.2291 65.728 30.6091 65.552C30.9931 65.376 31.4051 65.288 31.8451 65.288C32.2851 65.288 32.6951 65.376 33.0751 65.552C33.4591 65.728 33.7911 65.998 34.0711 66.362C34.3551 66.722 34.5771 67.18 34.7371 67.736C34.9011 68.288 34.9831 68.94 34.9831 69.692ZM33.7711 69.692C33.7711 69.044 33.7171 68.502 33.6091 68.066C33.5051 67.63 33.3631 67.28 33.1831 67.016C33.0071 66.748 32.8031 66.558 32.5711 66.446C32.3391 66.334 32.0971 66.278 31.8451 66.278C31.5931 66.278 31.3511 66.334 31.1191 66.446C30.8871 66.558 30.6811 66.748 30.5011 67.016C30.3251 67.28 30.1851 67.63 30.0811 68.066C29.9771 68.502 29.9251 69.044 29.9251 69.692C29.9251 70.34 29.9771 70.882 30.0811 71.318C30.1851 71.754 30.3251 72.104 30.5011 72.368C30.6811 72.632 30.8871 72.82 31.1191 72.932C31.3511 73.044 31.5931 73.1 31.8451 73.1C32.0971 73.1 32.3391 73.044 32.5711 72.932C32.8031 72.82 33.0071 72.632 33.1831 72.368C33.3631 72.104 33.5051 71.754 33.6091 71.318C33.7171 70.882 33.7711 70.34 33.7711 69.692ZM39.7 67.466C39.7 67.802 39.646 68.102 39.538 68.366C39.434 68.63 39.294 68.854 39.118 69.038C38.942 69.218 38.736 69.358 38.5 69.458C38.268 69.554 38.024 69.602 37.768 69.602C37.492 69.602 37.236 69.554 37 69.458C36.768 69.358 36.566 69.218 36.394 69.038C36.222 68.854 36.086 68.63 35.986 68.366C35.89 68.102 35.842 67.802 35.842 67.466C35.842 67.122 35.89 66.816 35.986 66.548C36.086 66.28 36.222 66.054 36.394 65.87C36.566 65.682 36.768 65.54 37 65.444C37.236 65.344 37.492 65.294 37.768 65.294C38.044 65.294 38.298 65.344 38.53 65.444C38.766 65.54 38.97 65.682 39.142 65.87C39.318 66.054 39.454 66.28 39.55 66.548C39.65 66.816 39.7 67.122 39.7 67.466ZM38.788 67.466C38.788 67.21 38.76 66.994 38.704 66.818C38.652 66.638 38.58 66.494 38.488 66.386C38.396 66.274 38.288 66.194 38.164 66.146C38.04 66.094 37.908 66.068 37.768 66.068C37.628 66.068 37.496 66.094 37.372 66.146C37.248 66.194 37.14 66.274 37.048 66.386C36.96 66.494 36.89 66.638 36.838 66.818C36.786 66.994 36.76 67.21 36.76 67.466C36.76 67.714 36.786 67.926 36.838 68.102C36.89 68.274 36.96 68.414 37.048 68.522C37.14 68.63 37.248 68.708 37.372 68.756C37.496 68.804 37.628 68.828 37.768 68.828C37.908 68.828 38.04 68.804 38.164 68.756C38.288 68.708 38.396 68.63 38.488 68.522C38.58 68.414 38.652 68.274 38.704 68.102C38.76 67.926 38.788 67.714 38.788 67.466ZM42.7 65.576C42.744 65.524 42.794 65.48 42.85 65.444C42.91 65.404 42.992 65.384 43.096 65.384H43.942L37.618 73.814C37.574 73.87 37.522 73.916 37.462 73.952C37.402 73.984 37.33 74 37.246 74H36.376L42.7 65.576ZM44.494 71.966C44.494 72.302 44.44 72.602 44.332 72.866C44.228 73.13 44.088 73.354 43.912 73.538C43.736 73.718 43.53 73.858 43.294 73.958C43.062 74.054 42.818 74.102 42.562 74.102C42.286 74.102 42.03 74.054 41.794 73.958C41.562 73.858 41.36 73.718 41.188 73.538C41.016 73.354 40.88 73.13 40.78 72.866C40.684 72.602 40.636 72.302 40.636 71.966C40.636 71.622 40.684 71.316 40.78 71.048C40.88 70.78 41.016 70.554 41.188 70.37C41.36 70.182 41.562 70.04 41.794 69.944C42.03 69.848 42.286 69.8 42.562 69.8C42.838 69.8 43.092 69.848 43.324 69.944C43.56 70.04 43.764 70.182 43.936 70.37C44.112 70.554 44.248 70.78 44.344 71.048C44.444 71.316 44.494 71.622 44.494 71.966ZM43.582 71.966C43.582 71.71 43.554 71.494 43.498 71.318C43.446 71.142 43.374 71 43.282 70.892C43.19 70.78 43.082 70.7 42.958 70.652C42.834 70.6 42.702 70.574 42.562 70.574C42.418 70.574 42.284 70.6 42.16 70.652C42.04 70.7 41.934 70.78 41.842 70.892C41.754 71 41.684 71.142 41.632 71.318C41.58 71.494 41.554 71.71 41.554 71.966C41.554 72.218 41.58 72.43 41.632 72.602C41.684 72.774 41.754 72.914 41.842 73.022C41.934 73.13 42.04 73.208 42.16 73.256C42.284 73.304 42.418 73.328 42.562 73.328C42.702 73.328 42.834 73.304 42.958 73.256C43.082 73.208 43.19 73.13 43.282 73.022C43.374 72.914 43.446 72.774 43.498 72.602C43.554 72.43 43.582 72.218 43.582 71.966Z" fill="#979797"/>
<path d="M25.7662 12.856V9.496C25.7662 9.38 25.7682 9.258 25.7722 9.13C25.7802 8.998 25.7942 8.862 25.8142 8.722L22.7962 12.856H25.7662ZM28.0402 12.856V13.534C28.0402 13.602 28.0182 13.66 27.9742 13.708C27.9302 13.756 27.8682 13.78 27.7882 13.78H26.7922V16H25.7662V13.78H21.9862C21.8982 13.78 21.8242 13.756 21.7642 13.708C21.7042 13.656 21.6642 13.592 21.6442 13.516L21.5242 12.916L25.6882 7.378H26.7922V12.856H28.0402ZM34.9831 11.692C34.9831 12.444 34.9011 13.096 34.7371 13.648C34.5771 14.2 34.3551 14.658 34.0711 15.022C33.7911 15.382 33.4591 15.65 33.0751 15.826C32.6951 16.002 32.2851 16.09 31.8451 16.09C31.4051 16.09 30.9931 16.002 30.6091 15.826C30.2291 15.65 29.8991 15.382 29.6191 15.022C29.3391 14.658 29.1191 14.2 28.9591 13.648C28.7991 13.096 28.7191 12.444 28.7191 11.692C28.7191 10.94 28.7991 10.288 28.9591 9.736C29.1191 9.18 29.3391 8.722 29.6191 8.362C29.8991 7.998 30.2291 7.728 30.6091 7.552C30.9931 7.376 31.4051 7.288 31.8451 7.288C32.2851 7.288 32.6951 7.376 33.0751 7.552C33.4591 7.728 33.7911 7.998 34.0711 8.362C34.3551 8.722 34.5771 9.18 34.7371 9.736C34.9011 10.288 34.9831 10.94 34.9831 11.692ZM33.7711 11.692C33.7711 11.044 33.7171 10.502 33.6091 10.066C33.5051 9.63 33.3631 9.28 33.1831 9.016C33.0071 8.748 32.8031 8.558 32.5711 8.446C32.3391 8.334 32.0971 8.278 31.8451 8.278C31.5931 8.278 31.3511 8.334 31.1191 8.446C30.8871 8.558 30.6811 8.748 30.5011 9.016C30.3251 9.28 30.1851 9.63 30.0811 10.066C29.9771 10.502 29.9251 11.044 29.9251 11.692C29.9251 12.34 29.9771 12.882 30.0811 13.318C30.1851 13.754 30.3251 14.104 30.5011 14.368C30.6811 14.632 30.8871 14.82 31.1191 14.932C31.3511 15.044 31.5931 15.1 31.8451 15.1C32.0971 15.1 32.3391 15.044 32.5711 14.932C32.8031 14.82 33.0071 14.632 33.1831 14.368C33.3631 14.104 33.5051 13.754 33.6091 13.318C33.7171 12.882 33.7711 12.34 33.7711 11.692ZM39.7 9.466C39.7 9.802 39.646 10.102 39.538 10.366C39.434 10.63 39.294 10.854 39.118 11.038C38.942 11.218 38.736 11.358 38.5 11.458C38.268 11.554 38.024 11.602 37.768 11.602C37.492 11.602 37.236 11.554 37 11.458C36.768 11.358 36.566 11.218 36.394 11.038C36.222 10.854 36.086 10.63 35.986 10.366C35.89 10.102 35.842 9.802 35.842 9.466C35.842 9.122 35.89 8.816 35.986 8.548C36.086 8.28 36.222 8.054 36.394 7.87C36.566 7.682 36.768 7.54 37 7.444C37.236 7.344 37.492 7.294 37.768 7.294C38.044 7.294 38.298 7.344 38.53 7.444C38.766 7.54 38.97 7.682 39.142 7.87C39.318 8.054 39.454 8.28 39.55 8.548C39.65 8.816 39.7 9.122 39.7 9.466ZM38.788 9.466C38.788 9.21 38.76 8.994 38.704 8.818C38.652 8.638 38.58 8.494 38.488 8.386C38.396 8.274 38.288 8.194 38.164 8.146C38.04 8.094 37.908 8.068 37.768 8.068C37.628 8.068 37.496 8.094 37.372 8.146C37.248 8.194 37.14 8.274 37.048 8.386C36.96 8.494 36.89 8.638 36.838 8.818C36.786 8.994 36.76 9.21 36.76 9.466C36.76 9.714 36.786 9.926 36.838 10.102C36.89 10.274 36.96 10.414 37.048 10.522C37.14 10.63 37.248 10.708 37.372 10.756C37.496 10.804 37.628 10.828 37.768 10.828C37.908 10.828 38.04 10.804 38.164 10.756C38.288 10.708 38.396 10.63 38.488 10.522C38.58 10.414 38.652 10.274 38.704 10.102C38.76 9.926 38.788 9.714 38.788 9.466ZM42.7 7.576C42.744 7.524 42.794 7.48 42.85 7.444C42.91 7.404 42.992 7.384 43.096 7.384H43.942L37.618 15.814C37.574 15.87 37.522 15.916 37.462 15.952C37.402 15.984 37.33 16 37.246 16H36.376L42.7 7.576ZM44.494 13.966C44.494 14.302 44.44 14.602 44.332 14.866C44.228 15.13 44.088 15.354 43.912 15.538C43.736 15.718 43.53 15.858 43.294 15.958C43.062 16.054 42.818 16.102 42.562 16.102C42.286 16.102 42.03 16.054 41.794 15.958C41.562 15.858 41.36 15.718 41.188 15.538C41.016 15.354 40.88 15.13 40.78 14.866C40.684 14.602 40.636 14.302 40.636 13.966C40.636 13.622 40.684 13.316 40.78 13.048C40.88 12.78 41.016 12.554 41.188 12.37C41.36 12.182 41.562 12.04 41.794 11.944C42.03 11.848 42.286 11.8 42.562 11.8C42.838 11.8 43.092 11.848 43.324 11.944C43.56 12.04 43.764 12.182 43.936 12.37C44.112 12.554 44.248 12.78 44.344 13.048C44.444 13.316 44.494 13.622 44.494 13.966ZM43.582 13.966C43.582 13.71 43.554 13.494 43.498 13.318C43.446 13.142 43.374 13 43.282 12.892C43.19 12.78 43.082 12.7 42.958 12.652C42.834 12.6 42.702 12.574 42.562 12.574C42.418 12.574 42.284 12.6 42.16 12.652C42.04 12.7 41.934 12.78 41.842 12.892C41.754 13 41.684 13.142 41.632 13.318C41.58 13.494 41.554 13.71 41.554 13.966C41.554 14.218 41.58 14.43 41.632 14.602C41.684 14.774 41.754 14.914 41.842 15.022C41.934 15.13 42.04 15.208 42.16 15.256C42.284 15.304 42.418 15.328 42.562 15.328C42.702 15.328 42.834 15.304 42.958 15.256C43.082 15.208 43.19 15.13 43.282 15.022C43.374 14.914 43.446 14.774 43.498 14.602C43.554 14.43 43.582 14.218 43.582 13.966Z" fill="#979797"/>
<path d="M50 11H418" stroke="#EFF3F9"/>
<path d="M52 70H418" stroke="#EFF3F9"/>
<path d="M95.8248 151.249V152.065H91.2168V151.249H93.0588V145.387C93.0588 145.211 93.0648 145.033 93.0768 144.853L91.5468 146.167C91.4948 146.211 91.4428 146.239 91.3908 146.251C91.3388 146.259 91.2908 146.259 91.2468 146.251C91.2028 146.243 91.1608 146.227 91.1208 146.203C91.0848 146.179 91.0568 146.153 91.0368 146.125L90.7008 145.663L93.2628 143.449H94.1328V151.249H95.8248ZM101.058 148.963V145.417C101.058 145.313 101.062 145.199 101.07 145.075C101.078 144.951 101.09 144.825 101.106 144.697L97.9737 148.963H101.058ZM103.296 148.963V149.575C103.296 149.639 103.276 149.693 103.236 149.737C103.2 149.781 103.142 149.803 103.062 149.803H101.994V152.065H101.058V149.803H97.2417C97.1617 149.803 97.0917 149.781 97.0317 149.737C96.9757 149.689 96.9397 149.631 96.9237 149.563L96.8157 149.017L100.998 143.467H101.994V148.963H103.296Z" fill="#979797"/>
<path d="M167.915 152.454V153.27H163.307V152.454H165.149V146.592C165.149 146.416 165.155 146.238 165.167 146.058L163.637 147.372C163.585 147.416 163.533 147.444 163.481 147.456C163.429 147.464 163.381 147.464 163.337 147.456C163.293 147.448 163.251 147.432 163.211 147.408C163.175 147.384 163.147 147.358 163.127 147.33L162.791 146.868L165.353 144.654H166.223V152.454H167.915ZM170.94 147.918C171.388 147.822 171.8 147.774 172.176 147.774C172.624 147.774 173.02 147.84 173.364 147.972C173.708 148.104 173.994 148.286 174.222 148.518C174.454 148.75 174.628 149.024 174.744 149.34C174.864 149.656 174.924 150 174.924 150.372C174.924 150.828 174.844 151.24 174.684 151.608C174.528 151.976 174.31 152.292 174.03 152.556C173.754 152.816 173.428 153.016 173.052 153.156C172.676 153.296 172.27 153.366 171.834 153.366C171.582 153.366 171.34 153.34 171.108 153.288C170.876 153.24 170.658 153.174 170.454 153.09C170.254 153.006 170.068 152.91 169.896 152.802C169.724 152.694 169.572 152.58 169.44 152.46L169.77 152.004C169.842 151.9 169.936 151.848 170.052 151.848C170.132 151.848 170.222 151.88 170.322 151.944C170.422 152.004 170.544 152.072 170.688 152.148C170.832 152.224 171 152.294 171.192 152.358C171.388 152.418 171.62 152.448 171.888 152.448C172.188 152.448 172.458 152.4 172.698 152.304C172.938 152.208 173.144 152.072 173.316 151.896C173.488 151.716 173.62 151.502 173.712 151.254C173.804 151.006 173.85 150.728 173.85 150.42C173.85 150.152 173.81 149.91 173.73 149.694C173.654 149.478 173.536 149.294 173.376 149.142C173.22 148.99 173.024 148.872 172.788 148.788C172.552 148.704 172.276 148.662 171.96 148.662C171.744 148.662 171.518 148.68 171.282 148.716C171.05 148.752 170.812 148.81 170.568 148.89L169.896 148.692L170.586 144.672H174.66V145.14C174.66 145.292 174.612 145.418 174.516 145.518C174.424 145.614 174.264 145.662 174.036 145.662H171.336L170.94 147.918Z" fill="#979797"/>
<path d="M237.478 151.323V152.139H232.87V151.323H234.712V145.461C234.712 145.285 234.718 145.107 234.73 144.927L233.2 146.241C233.148 146.285 233.096 146.313 233.044 146.325C232.992 146.333 232.944 146.333 232.9 146.325C232.856 146.317 232.814 146.301 232.774 146.277C232.738 146.253 232.71 146.227 232.69 146.199L232.354 145.737L234.916 143.523H235.786V151.323H237.478ZM241.799 151.347C242.087 151.347 242.347 151.301 242.579 151.209C242.815 151.117 243.015 150.989 243.179 150.825C243.347 150.661 243.475 150.467 243.563 150.243C243.655 150.019 243.701 149.775 243.701 149.511C243.701 149.231 243.657 148.979 243.569 148.755C243.481 148.527 243.355 148.335 243.191 148.179C243.031 148.019 242.839 147.897 242.615 147.813C242.391 147.729 242.145 147.687 241.877 147.687C241.589 147.687 241.329 147.737 241.097 147.837C240.865 147.933 240.667 148.065 240.503 148.233C240.343 148.397 240.219 148.589 240.131 148.809C240.047 149.025 240.005 149.251 240.005 149.487C240.005 149.763 240.045 150.015 240.125 150.243C240.205 150.471 240.321 150.667 240.473 150.831C240.629 150.995 240.817 151.123 241.037 151.215C241.261 151.303 241.515 151.347 241.799 151.347ZM241.175 146.763C241.099 146.859 241.025 146.953 240.953 147.045C240.885 147.133 240.819 147.221 240.755 147.309C240.959 147.169 241.183 147.061 241.427 146.985C241.671 146.909 241.937 146.871 242.225 146.871C242.573 146.871 242.901 146.929 243.209 147.045C243.517 147.157 243.785 147.323 244.013 147.543C244.245 147.759 244.429 148.027 244.565 148.347C244.701 148.663 244.769 149.025 244.769 149.433C244.769 149.829 244.697 150.197 244.553 150.537C244.409 150.877 244.207 151.173 243.947 151.425C243.691 151.677 243.381 151.875 243.017 152.019C242.657 152.163 242.259 152.235 241.823 152.235C241.391 152.235 240.999 152.167 240.647 152.031C240.295 151.891 239.995 151.695 239.747 151.443C239.503 151.187 239.313 150.879 239.177 150.519C239.045 150.155 238.979 149.749 238.979 149.301C238.979 148.925 239.061 148.525 239.225 148.101C239.393 147.673 239.659 147.217 240.023 146.733L242.207 143.799C242.263 143.727 242.339 143.667 242.435 143.619C242.535 143.567 242.649 143.541 242.777 143.541H243.725L241.175 146.763Z" fill="#979797"/>
<path d="M309.041 151.923V152.739H304.433V151.923H306.275V146.061C306.275 145.885 306.281 145.707 306.293 145.527L304.763 146.841C304.711 146.885 304.659 146.913 304.607 146.925C304.555 146.933 304.507 146.933 304.463 146.925C304.419 146.917 304.377 146.901 304.337 146.877C304.301 146.853 304.273 146.827 304.253 146.799L303.917 146.337L306.479 144.123H307.349V151.923H309.041ZM316.38 144.141V144.621C316.38 144.757 316.364 144.869 316.332 144.957C316.304 145.045 316.276 145.119 316.248 145.179L312.684 152.361C312.632 152.465 312.56 152.555 312.468 152.631C312.376 152.703 312.254 152.739 312.102 152.739H311.334L314.946 145.647C314.998 145.547 315.052 145.455 315.108 145.371C315.164 145.287 315.224 145.207 315.288 145.131H310.8C310.732 145.131 310.672 145.105 310.62 145.053C310.568 144.997 310.542 144.935 310.542 144.867V144.141H316.38Z" fill="#979797"/>
<path d="M378.604 151.323V152.139H373.996V151.323H375.838V145.461C375.838 145.285 375.844 145.107 375.856 144.927L374.326 146.241C374.274 146.285 374.222 146.313 374.17 146.325C374.118 146.333 374.07 146.333 374.026 146.325C373.982 146.317 373.94 146.301 373.9 146.277C373.864 146.253 373.836 146.227 373.816 146.199L373.48 145.737L376.042 143.523H376.912V151.323H378.604ZM382.937 151.383C383.217 151.383 383.467 151.345 383.687 151.269C383.911 151.189 384.099 151.079 384.251 150.939C384.407 150.795 384.525 150.625 384.605 150.429C384.689 150.229 384.731 150.009 384.731 149.769C384.731 149.473 384.681 149.221 384.581 149.013C384.485 148.801 384.353 148.629 384.185 148.497C384.021 148.365 383.831 148.269 383.615 148.209C383.399 148.145 383.173 148.113 382.937 148.113C382.701 148.113 382.475 148.145 382.259 148.209C382.043 148.269 381.851 148.365 381.683 148.497C381.519 148.629 381.387 148.801 381.287 149.013C381.191 149.221 381.143 149.473 381.143 149.769C381.143 150.009 381.183 150.229 381.263 150.429C381.347 150.625 381.465 150.795 381.617 150.939C381.773 151.079 381.961 151.189 382.181 151.269C382.405 151.345 382.657 151.383 382.937 151.383ZM382.937 144.273C382.681 144.273 382.455 144.311 382.259 144.387C382.067 144.463 381.905 144.567 381.773 144.699C381.645 144.831 381.547 144.985 381.479 145.161C381.415 145.337 381.383 145.525 381.383 145.725C381.383 145.921 381.411 146.111 381.467 146.295C381.523 146.479 381.613 146.643 381.737 146.787C381.861 146.927 382.021 147.041 382.217 147.129C382.417 147.213 382.657 147.255 382.937 147.255C383.217 147.255 383.455 147.213 383.651 147.129C383.851 147.041 384.013 146.927 384.137 146.787C384.261 146.643 384.351 146.479 384.407 146.295C384.463 146.111 384.491 145.921 384.491 145.725C384.491 145.525 384.457 145.337 384.389 145.161C384.325 144.985 384.227 144.831 384.095 144.699C383.967 144.567 383.805 144.463 383.609 144.387C383.417 144.311 383.193 144.273 382.937 144.273ZM384.167 147.657C384.703 147.809 385.115 148.063 385.403 148.419C385.691 148.775 385.835 149.231 385.835 149.787C385.835 150.163 385.763 150.503 385.619 150.807C385.479 151.107 385.281 151.363 385.025 151.575C384.773 151.787 384.469 151.951 384.113 152.067C383.757 152.179 383.365 152.235 382.937 152.235C382.509 152.235 382.117 152.179 381.761 152.067C381.405 151.951 381.099 151.787 380.843 151.575C380.587 151.363 380.389 151.107 380.249 150.807C380.109 150.503 380.039 150.163 380.039 149.787C380.039 149.231 380.183 148.775 380.471 148.419C380.759 148.063 381.171 147.809 381.707 147.657C381.255 147.489 380.913 147.239 380.681 146.907C380.453 146.571 380.339 146.171 380.339 145.707C380.339 145.391 380.401 145.095 380.525 144.819C380.649 144.543 380.825 144.303 381.053 144.099C381.281 143.895 381.553 143.735 381.869 143.619C382.189 143.503 382.545 143.445 382.937 143.445C383.325 143.445 383.679 143.503 383.999 143.619C384.319 143.735 384.593 143.895 384.821 144.099C385.049 144.303 385.225 144.543 385.349 144.819C385.473 145.095 385.535 145.391 385.535 145.707C385.535 146.171 385.419 146.571 385.187 146.907C384.959 147.239 384.619 147.489 384.167 147.657Z" fill="#979797"/>
<path d="M46.2935 11.46H51.9071" stroke="#979797"/>
<path d="M46.2935 70.165H51.9072" stroke="#979797"/>
<path d="M46.2935 129.28H51.9072" stroke="#979797"/>
<path d="M133.908 11L133.908 129" stroke="#EFF3F9"/>
<path d="M204.855 11L204.855 129" stroke="#EFF3F9"/>
<path d="M275.803 11L275.803 129" stroke="#EFF3F9"/>
<path d="M346.75 11L346.75 129" stroke="#EFF3F9"/>
<path d="M417.698 11L417.698 129" stroke="#EFF3F9"/>
</svg>
