<svg width="419" height="169" fill="none" xmlns="http://www.w3.org/2000/svg"><path d="M57.224 11l-.002 117.996M418 129.01L56.966 129" stroke="#EBEBEB"/><path d="M34.983 128.692c0 .752-.082 1.404-.246 1.956-.16.552-.382 1.01-.666 1.374-.28.36-.612.628-.996.804a2.89 2.89 0 01-1.23.264 2.93 2.93 0 01-1.236-.264 2.67 2.67 0 01-.99-.804c-.28-.364-.5-.822-.66-1.374-.16-.552-.24-1.204-.24-1.956s.08-1.404.24-1.956c.16-.556.38-1.014.66-1.374.28-.364.61-.634.99-.81a2.93 2.93 0 011.236-.264c.44 0 .85.088 1.23.264.384.176.716.446.996.81.284.36.506.818.666 1.374.164.552.246 1.204.246 1.956zm-1.212 0c0-.648-.054-1.19-.162-1.626-.104-.436-.246-.786-.426-1.05-.176-.268-.38-.458-.612-.57a1.65 1.65 0 00-1.452 0c-.232.112-.438.302-.618.57-.176.264-.316.614-.42 1.05-.104.436-.156.978-.156 1.626 0 .648.052 1.19.156 1.626.104.436.244.786.42 1.05.18.264.386.452.618.564a1.65 1.65 0 001.452 0c.232-.112.436-.3.612-.564.18-.264.322-.614.426-1.05.108-.436.162-.978.162-1.626zm5.929-2.226c0 .336-.054.636-.162.9a2.041 2.041 0 01-.42.672 1.882 1.882 0 01-1.35.564c-.276 0-.532-.048-.768-.144-.232-.1-.434-.24-.606-.42a2.017 2.017 0 01-.408-.672 2.623 2.623 0 01-.144-.9c0-.344.048-.65.144-.918.1-.268.236-.494.408-.678.172-.188.374-.33.606-.426.236-.1.492-.15.768-.15s.53.05.762.15c.236.096.44.238.612.426.176.184.312.41.408.678.1.268.15.574.15.918zm-.912 0a2.16 2.16 0 00-.084-.648 1.15 1.15 0 00-.216-.432.782.782 0 00-.324-.24 1.014 1.014 0 00-.396-.078c-.14 0-.272.026-.396.078a.782.782 0 00-.324.24 1.21 1.21 0 00-.21.432 2.316 2.316 0 00-.078.648c0 .248.026.46.078.636.052.172.122.312.21.42.092.108.2.186.324.234.124.048.256.072.396.072s.272-.024.396-.072a.803.803 0 00.324-.234c.092-.108.164-.248.216-.42.056-.176.084-.388.084-.636zm3.912-1.89a.671.671 0 01.15-.132c.06-.04.142-.06.246-.06h.846l-6.324 8.43a.57.57 0 01-.156.138.453.453 0 01-.216.048h-.87l6.324-8.424zm1.794 6.39c0 .336-.054.636-.162.9a2.041 2.041 0 01-.42.672 1.882 1.882 0 01-1.35.564c-.276 0-.532-.048-.768-.144-.232-.1-.434-.24-.606-.42a2.017 2.017 0 01-.408-.672 2.623 2.623 0 01-.144-.9c0-.344.048-.65.144-.918.1-.268.236-.494.408-.678.172-.188.374-.33.606-.426.236-.096.492-.144.768-.144s.53.048.762.144c.236.096.44.238.612.426.176.184.312.41.408.678.1.268.15.574.15.918zm-.912 0a2.16 2.16 0 00-.084-.648 1.152 1.152 0 00-.216-.426.782.782 0 00-.324-.24 1.014 1.014 0 00-.396-.078c-.144 0-.278.026-.402.078a.79.79 0 00-.318.24c-.088.108-.158.25-.21.426a2.316 2.316 0 00-.078.648c0 .252.026.464.078.636.052.172.122.312.21.42a.812.812 0 00.318.234c.124.048.258.072.402.072.14 0 .272-.024.396-.072a.803.803 0 00.324-.234c.092-.108.164-.248.216-.42.056-.172.084-.384.084-.636zM27.326 72.89c.128 0 .228.038.3.114a.39.39 0 01.108.288V74H21.95v-.402c0-.08.016-.164.048-.252a.614.614 0 01.162-.246l2.724-2.73c.228-.228.434-.448.618-.66.184-.212.34-.422.468-.63.128-.212.226-.428.294-.648.072-.22.108-.452.108-.696 0-.24-.038-.45-.114-.63a1.25 1.25 0 00-.312-.456 1.295 1.295 0 00-.468-.27 1.83 1.83 0 00-.582-.09c-.208 0-.4.03-.576.09-.172.06-.326.144-.462.252-.136.108-.25.236-.342.384a1.581 1.581 0 00-.198.48c-.056.152-.128.254-.216.306-.084.052-.208.064-.372.036l-.612-.108c.056-.4.166-.752.33-1.056a2.525 2.525 0 011.47-1.23 3.397 3.397 0 011.044-.156c.376 0 .722.056 1.038.168.32.108.596.266.828.474.232.208.414.462.546.762.132.296.198.632.198 1.008 0 .32-.048.618-.144.894-.092.272-.22.532-.384.78-.16.248-.348.49-.564.726a21.8 21.8 0 01-.678.708l-2.184 2.232c.168-.044.336-.08.504-.108.172-.028.334-.042.486-.042h2.718zm7.657-3.198c0 .752-.082 1.404-.246 1.956-.16.552-.382 1.01-.666 1.374-.28.36-.612.628-.996.804a2.89 2.89 0 01-1.23.264 2.93 2.93 0 01-1.236-.264 2.67 2.67 0 01-.99-.804c-.28-.364-.5-.822-.66-1.374-.16-.552-.24-1.204-.24-1.956s.08-1.404.24-1.956c.16-.556.38-1.014.66-1.374.28-.364.61-.634.99-.81a2.93 2.93 0 011.236-.264c.44 0 .85.088 1.23.264.384.176.716.446.996.81.284.36.506.818.666 1.374.164.552.246 1.204.246 1.956zm-1.212 0c0-.648-.054-1.19-.162-1.626-.104-.436-.246-.786-.426-1.05-.176-.268-.38-.458-.612-.57a1.65 1.65 0 00-1.452 0c-.232.112-.438.302-.618.57-.176.264-.316.614-.42 1.05-.104.436-.156.978-.156 1.626 0 .648.052 1.19.156 1.626.104.436.244.786.42 1.05.18.264.386.452.618.564a1.65 1.65 0 001.452 0c.232-.112.436-.3.612-.564.18-.264.322-.614.426-1.05.108-.436.162-.978.162-1.626zm5.929-2.226c0 .336-.054.636-.162.9a2.041 2.041 0 01-.42.672 1.882 1.882 0 01-1.35.564c-.276 0-.532-.048-.768-.144-.232-.1-.434-.24-.606-.42a2.017 2.017 0 01-.408-.672 2.623 2.623 0 01-.144-.9c0-.344.048-.65.144-.918.1-.268.236-.494.408-.678.172-.188.374-.33.606-.426.236-.1.492-.15.768-.15s.53.05.762.15c.236.096.44.238.612.426.176.184.312.41.408.678.1.268.15.574.15.918zm-.912 0a2.16 2.16 0 00-.084-.648 1.15 1.15 0 00-.216-.432.782.782 0 00-.324-.24 1.014 1.014 0 00-.396-.078c-.14 0-.272.026-.396.078a.782.782 0 00-.324.24 1.21 1.21 0 00-.21.432 2.316 2.316 0 00-.078.648c0 .248.026.46.078.636.052.172.122.312.21.42.092.108.2.186.324.234.124.048.256.072.396.072s.272-.024.396-.072a.803.803 0 00.324-.234c.092-.108.164-.248.216-.42.056-.176.084-.388.084-.636zm3.912-1.89a.671.671 0 01.15-.132c.06-.04.142-.06.246-.06h.846l-6.324 8.43a.57.57 0 01-.156.138.453.453 0 01-.216.048h-.87l6.324-8.424zm1.794 6.39c0 .336-.054.636-.162.9a2.041 2.041 0 01-.42.672 1.882 1.882 0 01-1.35.564c-.276 0-.532-.048-.768-.144-.232-.1-.434-.24-.606-.42a2.017 2.017 0 01-.408-.672 2.623 2.623 0 01-.144-.9c0-.344.048-.65.144-.918.1-.268.236-.494.408-.678.172-.188.374-.33.606-.426.236-.096.492-.144.768-.144s.53.048.762.144c.236.096.44.238.612.426.176.184.312.41.408.678.1.268.15.574.15.918zm-.912 0a2.16 2.16 0 00-.084-.648 1.152 1.152 0 00-.216-.426.782.782 0 00-.324-.24 1.014 1.014 0 00-.396-.078c-.144 0-.278.026-.402.078a.79.79 0 00-.318.24c-.088.108-.158.25-.21.426a2.316 2.316 0 00-.078.648c0 .252.026.464.078.636.052.172.122.312.21.42a.812.812 0 00.318.234c.124.048.258.072.402.072.14 0 .272-.024.396-.072a.803.803 0 00.324-.234c.092-.108.164-.248.216-.42.056-.172.084-.384.084-.636zm-17.816-59.11v-3.36c0-.116.002-.238.006-.366.008-.132.022-.268.042-.408l-3.018 4.134h2.97zm2.274 0v.678a.248.248 0 01-.066.174.24.24 0 01-.186.072h-.996V16h-1.026v-2.22h-3.78a.344.344 0 01-.222-.072.375.375 0 01-.12-.192l-.12-.6 4.164-5.538h1.104v5.478h1.248zm6.943-1.164c0 .752-.082 1.404-.246 1.956-.16.552-.382 1.01-.666 1.374-.28.36-.612.628-.996.804a2.89 2.89 0 01-1.23.264 2.93 2.93 0 01-1.236-.264 2.67 2.67 0 01-.99-.804c-.28-.364-.5-.822-.66-1.374-.16-.552-.24-1.204-.24-1.956s.08-1.404.24-1.956c.16-.556.38-1.014.66-1.374.28-.364.61-.634.99-.81a2.93 2.93 0 011.236-.264c.44 0 .85.088 1.23.264.384.176.716.446.996.81.284.36.506.818.666 1.374.164.552.246 1.204.246 1.956zm-1.212 0c0-.648-.054-1.19-.162-1.626-.104-.436-.246-.786-.426-1.05-.176-.268-.38-.458-.612-.57a1.65 1.65 0 00-1.452 0c-.232.112-.438.302-.618.57-.176.264-.316.614-.42 1.05-.104.436-.156.978-.156 1.626 0 .648.052 1.19.156 1.626.104.436.244.786.42 1.05.18.264.386.452.618.564a1.65 1.65 0 001.452 0c.232-.112.436-.3.612-.564.18-.264.322-.614.426-1.05.108-.436.162-.978.162-1.626zM39.7 9.466c0 .336-.054.636-.162.9a2.041 2.041 0 01-.42.672 1.882 1.882 0 01-1.35.564c-.276 0-.532-.048-.768-.144-.232-.1-.434-.24-.606-.42a2.017 2.017 0 01-.408-.672 2.623 2.623 0 01-.144-.9c0-.344.048-.65.144-.918.1-.268.236-.494.408-.678.172-.188.374-.33.606-.426.236-.1.492-.15.768-.15s.53.05.762.15c.236.096.44.238.612.426.176.184.312.41.408.678.1.268.15.574.15.918zm-.912 0a2.16 2.16 0 00-.084-.648 1.15 1.15 0 00-.216-.432.782.782 0 00-.324-.24 1.014 1.014 0 00-.396-.078c-.14 0-.272.026-.396.078a.782.782 0 00-.324.24 1.21 1.21 0 00-.21.432 2.316 2.316 0 00-.078.648c0 .248.026.46.078.636.052.172.122.312.21.42.092.108.2.186.324.234.124.048.256.072.396.072s.272-.024.396-.072a.803.803 0 00.324-.234c.092-.108.164-.248.216-.42.056-.176.084-.388.084-.636zm3.912-1.89a.671.671 0 01.15-.132c.06-.04.142-.06.246-.06h.846l-6.324 8.43a.57.57 0 01-.156.138.453.453 0 01-.216.048h-.87L42.7 7.576zm1.794 6.39c0 .336-.054.636-.162.9a2.041 2.041 0 01-.42.672 1.882 1.882 0 01-1.35.564c-.276 0-.532-.048-.768-.144-.232-.1-.434-.24-.606-.42a2.017 2.017 0 01-.408-.672 2.623 2.623 0 01-.144-.9c0-.344.048-.65.144-.918.1-.268.236-.494.408-.678.172-.188.374-.33.606-.426.236-.096.492-.144.768-.144s.53.048.762.144c.236.096.44.238.612.426.176.184.312.41.408.678.1.268.15.574.15.918zm-.912 0a2.16 2.16 0 00-.084-.648 1.152 1.152 0 00-.216-.426.782.782 0 00-.324-.24 1.014 1.014 0 00-.396-.078c-.144 0-.278.026-.402.078a.79.79 0 00-.318.24c-.088.108-.158.25-.21.426a2.316 2.316 0 00-.078.648c0 .252.026.464.078.636.052.172.122.312.21.42a.812.812 0 00.318.234c.124.048.258.072.402.072.14 0 .272-.024.396-.072a.803.803 0 00.324-.234c.092-.108.164-.248.216-.42.056-.172.084-.384.084-.636z" fill="#979797"/><path d="M50 11h368M52 70h366" stroke="#EFF3F9"/><path d="M95.825 151.249v.816h-4.608v-.816h1.842v-5.862c0-.176.006-.354.018-.534l-1.53 1.314a.375.375 0 01-.156.084.373.373 0 01-.27-.048.318.318 0 01-.084-.078l-.336-.462 2.562-2.214h.87v7.8h1.692zm5.233-2.286v-3.546a6.337 6.337 0 01.048-.72l-3.132 4.266h3.084zm2.238 0v.612c0 .064-.02.118-.06.162-.036.044-.094.066-.174.066h-1.068v2.262h-.936v-2.262h-3.816a.346.346 0 01-.21-.066.322.322 0 01-.108-.174l-.108-.546 4.182-5.55h.996v5.496h1.302zm64.619 3.491v.816h-4.608v-.816h1.842v-5.862c0-.176.006-.354.018-.534l-1.53 1.314a.375.375 0 01-.156.084.373.373 0 01-.27-.048.318.318 0 01-.084-.078l-.336-.462 2.562-2.214h.87v7.8h1.692zm3.025-4.536c.448-.096.86-.144 1.236-.144.448 0 .844.066 1.188.198s.63.314.858.546c.232.232.406.506.522.822.12.316.18.66.18 1.032 0 .456-.08.868-.24 1.236a2.774 2.774 0 01-1.632 1.548c-.376.14-.782.21-1.218.21a3.31 3.31 0 01-.726-.078 3.663 3.663 0 01-1.212-.486 3.226 3.226 0 01-.456-.342l.33-.456a.33.33 0 01.282-.156c.08 0 .17.032.27.096.1.06.222.128.366.204.144.076.312.146.504.21.196.06.428.09.696.09.3 0 .57-.048.81-.144.24-.096.446-.232.618-.408.172-.18.304-.394.396-.642.092-.248.138-.526.138-.834 0-.268-.04-.51-.12-.726a1.381 1.381 0 00-.354-.552 1.594 1.594 0 00-.588-.354 2.468 2.468 0 00-.828-.126 4.5 4.5 0 00-1.392.228l-.672-.198.69-4.02h4.074v.468a.524.524 0 01-.144.378c-.092.096-.252.144-.48.144h-2.7l-.396 2.256zm66.538 3.405v.816h-4.608v-.816h1.842v-5.862c0-.176.006-.354.018-.534l-1.53 1.314a.375.375 0 01-.156.084.373.373 0 01-.27-.048.318.318 0 01-.084-.078l-.336-.462 2.562-2.214h.87v7.8h1.692zm4.321.024a2.1 2.1 0 00.78-.138c.236-.092.436-.22.6-.384.168-.164.296-.358.384-.582.092-.224.138-.468.138-.732 0-.28-.044-.532-.132-.756a1.554 1.554 0 00-.378-.576 1.595 1.595 0 00-.576-.366 2.086 2.086 0 00-.738-.126c-.288 0-.548.05-.78.15-.232.096-.43.228-.594.396-.16.164-.284.356-.372.576a1.854 1.854 0 00-.126.678c0 .276.04.528.12.756.08.228.196.424.348.588.156.164.344.292.564.384.224.088.478.132.762.132zm-.624-4.584l-.222.282c-.068.088-.134.176-.198.264.204-.14.428-.248.672-.324.244-.076.51-.114.798-.114.348 0 .676.058.984.174.308.112.576.278.804.498.232.216.416.484.552.804.136.316.204.678.204 1.086 0 .396-.072.764-.216 1.104-.144.34-.346.636-.606.888-.256.252-.566.45-.93.594-.36.144-.758.216-1.194.216a3.24 3.24 0 01-1.176-.204 2.585 2.585 0 01-.9-.588 2.708 2.708 0 01-.57-.924 3.553 3.553 0 01-.198-1.218c0-.376.082-.776.246-1.2.168-.428.434-.884.798-1.368l2.184-2.934a.73.73 0 01.57-.258h.948l-2.55 3.222zm67.866 5.16v.816h-4.608v-.816h1.842v-5.862c0-.176.006-.354.018-.534l-1.53 1.314a.375.375 0 01-.156.084.373.373 0 01-.27-.048.318.318 0 01-.084-.078l-.336-.462 2.562-2.214h.87v7.8h1.692zm7.339-7.782v.48a.997.997 0 01-.048.336 1.884 1.884 0 01-.084.222l-3.564 7.182a.827.827 0 01-.216.27.577.577 0 01-.366.108h-.768l3.612-7.092a2.956 2.956 0 01.342-.516H310.8a.247.247 0 01-.18-.078.267.267 0 01-.078-.186v-.726h5.838zm62.224 7.182v.816h-4.608v-.816h1.842v-5.862c0-.176.006-.354.018-.534l-1.53 1.314a.375.375 0 01-.156.084.373.373 0 01-.27-.048.318.318 0 01-.084-.078l-.336-.462 2.562-2.214h.87v7.8h1.692zm4.333.06c.28 0 .53-.038.75-.114.224-.08.412-.19.564-.33.156-.144.274-.314.354-.51.084-.2.126-.42.126-.66 0-.296-.05-.548-.15-.756a1.352 1.352 0 00-.396-.516 1.566 1.566 0 00-.57-.288 2.374 2.374 0 00-.678-.096c-.236 0-.462.032-.678.096-.216.06-.408.156-.576.288a1.435 1.435 0 00-.396.516c-.096.208-.144.46-.144.756 0 .24.04.46.12.66.084.196.202.366.354.51.156.14.344.25.564.33.224.076.476.114.756.114zm0-7.11c-.256 0-.482.038-.678.114-.192.076-.354.18-.486.312a1.36 1.36 0 00-.294.462 1.638 1.638 0 00-.096.564c0 .196.028.386.084.57.056.184.146.348.27.492.124.14.284.254.48.342.2.084.44.126.72.126.28 0 .518-.042.714-.126.2-.088.362-.202.486-.342.124-.144.214-.308.27-.492.056-.184.084-.374.084-.57 0-.2-.034-.388-.102-.564a1.25 1.25 0 00-.294-.462 1.34 1.34 0 00-.486-.312 1.819 1.819 0 00-.672-.114zm1.23 3.384c.536.152.948.406 1.236.762.288.356.432.812.432 1.368 0 .376-.072.716-.216 1.02-.14.3-.338.556-.594.768a2.696 2.696 0 01-.912.492 3.904 3.904 0 01-1.176.168c-.428 0-.82-.056-1.176-.168a2.765 2.765 0 01-.918-.492 2.185 2.185 0 01-.594-.768 2.41 2.41 0 01-.21-1.02c0-.556.144-1.012.432-1.368.288-.356.7-.61 1.236-.762-.452-.168-.794-.418-1.026-.75-.228-.336-.342-.736-.342-1.2a2.125 2.125 0 01.714-1.608c.228-.204.5-.364.816-.48.32-.116.676-.174 1.068-.174.388 0 .742.058 1.062.174.32.116.594.276.822.48a2.125 2.125 0 01.714 1.608c0 .464-.116.864-.348 1.2-.228.332-.568.582-1.02.75z" fill="#979797"/><path d="M46.294 11.46h5.613m-5.613 58.705h5.613m-5.613 59.115h5.613" stroke="#979797"/><path d="M133.908 11v118m70.947-118v118m70.948-118v118M346.75 11v118m70.948-118v118" stroke="#EFF3F9"/></svg>